<svg height="512" viewBox="0 0 512 512" width="512" xmlns="http://www.w3.org/2000/svg" xmlns:xlink="http://www.w3.org/1999/xlink"><linearGradient id="a" gradientUnits="userSpaceOnUse" x1="21" x2="523.004" y1="491" y2="-11.004" data-name="New Gradient Swatch 1"><stop offset="0" stop-color="#003f8a"/><stop offset=".518" stop-color="#00d7df"/><stop offset="1" stop-color="#006df0"/></linearGradient><linearGradient id="b" x1="-195.5" x2="306.504" xlink:href="#a" y1="274.5" y2="-227.504"/><linearGradient id="c" x1="-183" x2="319.004" xlink:href="#a" y1="287" y2="-215.004"/><linearGradient id="d" x1="-171" x2="331.004" xlink:href="#a" y1="299" y2="-203.004"/><linearGradient id="e" x1="153" x2="655.004" xlink:href="#a" y1="623" y2="120.996"/><linearGradient id="f" x1="181" x2="683.004" xlink:href="#a" y1="651" y2="148.996"/><linearGradient id="g" x1="219" x2="721.004" xlink:href="#a" y1="689" y2="186.996"/><linearGradient id="h" x1="29" x2="531.004" xlink:href="#a" y1="499" y2="-3.004"/><linearGradient id="i" x1="95" x2="597.004" xlink:href="#a" y1="565" y2="62.996"/><linearGradient id="j" x1="-49" x2="453.004" xlink:href="#a" y1="421" y2="-81.004"/><linearGradient id="k" x1="-133" x2="369.004" xlink:href="#a" y1="337" y2="-165.004"/><linearGradient id="l" x1="-139" x2="363.004" xlink:href="#a" y1="331" y2="-171.004"/><linearGradient id="m" x1="-117" x2="385.004" xlink:href="#a" y1="353" y2="-149.004"/><g><path d="m472 8h-432a32.03 32.03 0 0 0 -32 32v432a32.03 32.03 0 0 0 32 32h432a32.03 32.03 0 0 0 32-32v-432a32.03 32.03 0 0 0 -32-32zm16 464a16.021 16.021 0 0 1 -16 16h-432a16.021 16.021 0 0 1 -16-16v-400h464zm0-416h-464v-16a16.021 16.021 0 0 1 16-16h432a16.021 16.021 0 0 1 16 16z" fill="url(#a)"/><circle cx="39" cy="40" fill="url(#b)" r="8"/><circle cx="64" cy="40" fill="url(#c)" r="8"/><circle cx="88" cy="40" fill="url(#d)" r="8"/><path d="m456 424h-224a8 8 0 0 0 0 16h224a8 8 0 0 0 0-16z" fill="url(#e)"/><path d="m424 448h-96a8 8 0 0 0 0 16h96a8 8 0 0 0 0-16z" fill="url(#f)"/><path d="m456 448h-8a8 8 0 0 0 0 16h8a8 8 0 0 0 0-16z" fill="url(#g)"/><path d="m288 376a32.036 32.036 0 0 0 32-32v-144a32.036 32.036 0 0 0 -32-32h-64a32.036 32.036 0 0 0 -32 32v144a32.036 32.036 0 0 0 32 32zm-80-32v-144a16.019 16.019 0 0 1 16-16h64a16.019 16.019 0 0 1 16 16v144a16.019 16.019 0 0 1 -16 16h-64a16.019 16.019 0 0 1 -16-16z" fill="url(#h)"/><path d="m464 272a8 8 0 0 1 -8 8h-16v88a8 8 0 0 1 -16 0v-88h-80a8 8 0 0 1 -8-8v-96a8 8 0 0 1 16 0v88h72v-88a8 8 0 0 1 16 0v88h16a8 8 0 0 1 8 8z" fill="url(#i)"/><path d="m168 264h-16v-88a8 8 0 0 0 -16 0v88h-72v-88a8 8 0 0 0 -16 0v96a8 8 0 0 0 8 8h80v88a8 8 0 0 0 16 0v-88h16a8 8 0 0 0 0-16z" fill="url(#j)"/><path d="m56 104h104a8 8 0 0 0 0-16h-104a8 8 0 0 0 0 16z" fill="url(#k)"/><path d="m56 128h32a8 8 0 0 0 0-16h-32a8 8 0 0 0 0 16z" fill="url(#l)"/><path d="m112 112a8 8 0 0 0 0 16h8a8 8 0 0 0 0-16z" fill="url(#m)"/></g></svg>